PathFileType	4	(X/Y/Z)	 s05c0101.trc
DataRate	CameraRate	NumFrames	NumMarkers	Units	OrigDataRate	OrigDataStartFrame	OrigNumFrames
200	200	5	50	mm	200	501	2000
Frame#	Time	racr			lacr			c7			jug			rlel			rdr			llel			ldr			s2			lic			ric			lasi			rasi			rpsi			lpsi			rgt			lgt			rth1			rth2			rth3			rth4			rlfc			rmfc			rsh1			rsh2			rsh3			rsh4			rlmal			rmmal			rcal			rtoe			rmt5			lth1			lth2			lth4			lth3			llfc			lmfc			lsh1			lsh2			lsh3			lsh4			llmal			lmmal			lcal			ltoe			lmt5			SBIKE			LBIKE			RBIKE			
		X1	Y1	Z1	X2	Y2	Z2	X3	Y3	Z3	X4	Y4	Z4	X5	Y5	Z5	X6	Y6	Z6	X7	Y7	Z7	X8	Y8	Z8	X9	Y9	Z9	X10	Y10	Z10	X11	Y11	Z11	X12	Y12	Z12	X13	Y13	Z13	X14	Y14	Z14	X15	Y15	Z15	X16	Y16	Z16	X17	Y17	Z17	X18	Y18	Z18	X19	Y19	Z19	X20	Y20	Z20	X21	Y21	Z21	X22	Y22	Z22	X23	Y23	Z23	X24	Y24	Z24	X25	Y25	Z25	X26	Y26	Z26	X27	Y27	Z27	X28	Y28	Z28	X29	Y29	Z29	X30	Y30	Z30	X31	Y31	Z31	X32	Y32	Z32	X33	Y33	Z33	X34	Y34	Z34	X35	Y35	Z35	X36	Y36	Z36	X37	Y37	Z37	X38	Y38	Z38	X39	Y39	Z39	X40	Y40	Z40	X41	Y41	Z41	X42	Y42	Z42	X43	Y43	Z43	X44	Y44	Z44	X45	Y45	Z45	X46	Y46	Z46	X47	Y47	Z47	X48	Y48	Z48	X49	Y49	Z49	X50	Y50	Z50	
501	2.5050	496.663464	1331.791228	-130.118069	485.378032	1362.412941	-390.813002	457.011658	1421.598472	-260.614836	440.328407	1256.731856	-267.050361	511.247014	1085.510853	8.298262	697.991329	926.576187	-65.201374	463.312292	1091.565205	-513.594324	686.254121	945.138043	-454.843196	-85.249599	1185.781502	-239.130355	65.793622	1203.579794	-383.940548	62.691068	1189.191638	-99.154468	112.581413	1144.521896	-357.310387	96.736544	1129.458901	-131.606127	-46.588749	1230.763800	-199.093855	-45.161774	1238.282379	-281.756893	21.533812	1066.677501	-80.128301	-9.664108	1102.478108	-417.193400	119.688707	1007.847714	-71.250772	206.001218	985.157592	-71.285121	267.380921	921.974352	-76.314925	223.075589	1015.979334	-83.125741	379.767388	831.429026	-106.157716	363.418105	832.173526	-216.415718	286.185078	776.406080	-81.830375	234.201472	705.639413	-94.697205	156.680265	668.280214	-98.350630	254.707905	685.770064	-121.339928	56.636611	583.511821	-107.008705	81.024690	594.412406	-188.829970	-18.066987	602.923495	-153.355487	187.823130	389.719625	-151.891177	98.327941	440.247319	-87.047342	66.034281	980.854220	-442.866248	134.547288	928.741305	-445.813283	164.541396	949.008628	-434.342245	167.222987	844.258454	-447.191028	244.110444	718.232101	-418.338095	229.627263	701.948067	-313.066814	217.919381	592.580041	-449.532699	234.358337	507.671451	-437.182162	205.890346	423.438139	-437.848969	264.051791	508.582296	-412.370913	204.957430	303.093358	-430.412611	227.280610	327.942250	-352.820759	144.420343	264.997143	-390.234939	438.913834	231.296315	-393.777352	329.871802	212.062986	-458.454789	-259.546644	899.848703	-280.240708	-43.528458	84.792101	-475.093509	-51.682231	80.157019	-77.561206	
502	2.5100	496.105183	1331.404160	-130.202103	485.143110	1361.773566	-391.056787	456.660894	1421.274135	-260.834034	439.952027	1256.313549	-267.262166	511.158804	1085.232040	8.288662	698.055653	926.649782	-65.308086	463.889091	1091.262230	-514.060928	686.548776	944.954331	-454.717646	-85.589495	1185.775206	-240.274778	65.911490	1203.158649	-384.956222	61.765541	1189.915994	-100.151999	112.551819	1143.950798	-358.183444	96.016797	1130.310594	-132.287923	-47.195842	1231.321961	-200.380967	-45.327052	1238.200819	-283.060037	21.094394	1068.016136	-80.419582	-10.359979	1101.687449	-417.443788	119.975376	1010.253309	-71.476865	206.531027	988.665404	-71.818798	268.636354	926.168069	-76.731170	223.219577	1019.540842	-83.916072	381.788106	836.501015	-106.721868	365.321378	836.912057	-217.237778	288.132108	781.553130	-82.612927	236.361593	710.638298	-95.179084	158.908914	673.071339	-98.703719	256.994217	690.602070	-121.598546	59.164976	588.035286	-107.066862	83.488738	598.873940	-188.843144	-15.916078	606.596426	-153.701668	192.083701	395.357031	-151.765100	102.126412	445.106343	-87.065902	64.282077	979.902671	-443.145905	132.219013	926.967915	-446.585097	162.461113	946.917061	-435.163328	163.877875	842.121301	-448.048560	239.417987	715.111843	-418.905705	225.193932	698.607286	-313.375274	213.260790	589.447577	-450.112206	230.020142	504.634410	-437.737829	201.852654	420.327105	-438.141214	259.677259	505.766259	-413.109320	201.783415	300.005734	-430.558805	223.481621	324.313792	-353.163674	141.196083	262.525250	-390.348173	435.283311	225.780949	-393.866258	326.129355	207.619122	-458.530408	-259.565184	899.841638	-280.262171	-43.519423	84.794289	-475.086643	-51.685782	80.157553	-77.564089	
503	2.5150	495.552345	1331.071407	-130.325392	484.769247	1361.225773	-391.177815	456.292943	1420.897894	-261.022606	439.529888	1255.930418	-267.389652	511.052814	1085.082044	8.211612	698.124193	926.746727	-65.473935	464.419873	1091.047954	-514.561455	686.932386	944.723550	-454.674772	-85.812727	1185.811385	-241.593591	65.947726	1202.799943	-385.995883	60.818601	1190.751443	-101.157575	112.216716	1143.444598	-358.989129	95.301091	1131.225128	-133.008555	-47.782521	1231.602604	-201.843978	-45.504536	1238.022277	-284.436457	20.722923	1069.460969	-80.730718	-10.966918	1100.873319	-417.731396	120.342797	1012.913469	-71.567227	207.152780	992.195823	-72.385052	269.945040	930.494789	-77.164966	223.438932	1023.275762	-84.735539	383.876598	841.819808	-107.417193	367.207925	841.770201	-217.857780	290.179506	786.667499	-83.295190	238.631773	715.575909	-95.512925	161.257621	677.751093	-98.988433	259.320383	695.419730	-121.861396	61.820883	592.175047	-107.377833	86.130687	603.231081	-188.886800	-13.483777	610.195598	-153.815367	196.800191	401.553177	-150.733693	106.094545	449.916779	-87.005206	62.599063	978.933396	-443.366639	129.869164	925.244869	-447.319043	160.404146	944.834816	-435.970502	160.531093	840.057156	-448.871763	234.729195	712.162644	-419.423440	221.358036	696.138241	-313.861441	208.584992	586.430789	-450.650683	225.683815	501.733339	-438.313318	197.828523	417.373551	-438.523420	255.445194	502.873114	-413.719907	198.533180	297.175966	-430.701343	219.553485	320.817961	-353.482014	137.808443	260.439421	-390.431247	431.553272	220.191664	-393.892160	322.207233	203.139050	-458.637224	-259.545873	899.808026	-280.271680	-43.513546	84.819766	-475.078646	-51.670662	80.157984	-77.558600	
504	2.5200	494.873174	1330.853139	-130.536793	484.599164	1360.629336	-391.435293	455.952053	1420.600525	-261.330812	439.114697	1255.528079	-267.449850	510.903830	1084.960021	8.034278	698.217102	926.905398	-65.641816	465.029776	1090.950383	-515.118428	687.398218	944.459662	-454.642542	-85.966235	1185.979949	-242.829243	65.933508	1202.350301	-386.958610	59.861638	1191.571143	-102.197334	112.098701	1143.100883	-359.840518	94.631532	1132.145836	-133.687963	-48.535282	1232.383908	-202.983493	-45.704169	1238.013180	-285.734957	20.320469	1070.942598	-80.970024	-11.638522	1100.173598	-418.036094	120.786398	1015.580225	-71.562194	207.786461	995.912238	-72.904353	271.202901	934.878983	-77.615513	223.586995	1027.088914	-85.473920	386.006334	847.155725	-107.890303	369.156424	845.593150	-217.690346	292.265895	791.736921	-83.878709	241.027029	720.364647	-95.834469	163.725613	682.354105	-99.241086	261.785564	700.277753	-122.086054	64.680137	596.303262	-107.586894	88.002524	607.338367	-189.221361	-10.756401	613.655385	-154.051830	200.891750	406.450086	-151.533769	110.344521	454.515238	-86.994302	60.965455	978.028995	-443.635960	127.640076	923.557581	-448.093109	158.420590	942.810269	-436.797147	157.295572	838.005201	-449.654777	230.074048	709.447285	-419.937922	217.300736	693.412373	-314.302079	203.945725	583.646192	-451.148346	221.357410	498.921148	-438.792719	193.789875	414.412138	-438.823572	251.175119	500.260240	-414.357550	195.203114	294.291340	-430.948834	215.507599	317.462395	-353.776364	134.411404	258.253217	-390.627163	427.579468	214.865743	-393.967554	318.101203	198.972681	-458.720177	-259.513086	899.840491	-280.318560	-43.534500	84.839365	-475.076635	-51.688902	80.191098	-77.552322	
505	2.5250	494.251126	1330.712951	-130.748721	484.392720	1360.077974	-391.643091	455.516026	1420.421998	-261.638941	438.568094	1255.322901	-267.571203	510.747668	1084.929179	7.816659	698.295806	927.069006	-65.857841	466.011622	1091.045410	-516.293278	687.934827	944.100163	-454.693204	-86.136100	1186.063948	-244.394475	65.879127	1202.008108	-387.888068	58.919901	1192.581450	-103.212009	111.972796	1142.670255	-360.562881	93.935583	1133.183997	-134.508884	-49.754402	1232.958862	-203.398150	-46.000685	1238.019601	-287.142859	20.045337	1072.578344	-81.258816	-12.184243	1099.476428	-418.311949	121.162559	1018.372833	-71.687778	208.294066	999.629752	-73.373174	272.494783	939.304436	-77.989332	223.746095	1030.871127	-86.210375	388.155545	852.516786	-108.164746	370.964138	851.373136	-218.621354	294.338341	796.696684	-84.398328	243.430527	725.143016	-96.165667	166.293197	686.823931	-99.489169	264.302963	705.043377	-122.280610	67.707401	600.136423	-107.813894	92.703029	611.361974	-188.869075	-7.854361	616.816555	-154.261367	205.675563	411.472969	-151.847263	114.740101	458.937410	-86.969017	59.419878	977.164768	-443.939953	125.442562	921.880564	-448.832875	156.517524	940.763690	-437.599973	154.131792	835.969039	-450.336847	225.542270	706.715010	-420.359517	213.274337	690.755329	-314.619493	199.364478	580.910539	-451.558172	217.064285	496.335510	-439.178078	189.692600	411.668803	-439.105429	246.952720	497.721666	-414.861641	191.681476	291.677040	-431.088583	211.355358	314.254734	-354.047310	130.814933	256.442786	-390.665020	423.544943	209.594835	-393.999393	313.882293	194.878624	-458.764894	-259.530005	899.840652	-280.302635	-43.550372	84.845599	-475.089707	-51.674171	80.165773	-77.561246	
